<?xml version="1.0" standalone="no"?>
<!DOCTYPE svg PUBLIC "-//W3C//DTD SVG 20010904//EN"
 "http://www.w3.org/TR/2001/REC-SVG-20010904/DTD/svg10.dtd">
<svg version="1.0" xmlns="http://www.w3.org/2000/svg"
 width="287.000000pt" height="292.000000pt" viewBox="0 0 287.000000 292.000000"
 preserveAspectRatio="xMidYMid meet">

<g transform="translate(0.000000,292.000000) scale(0.100000,-0.100000)"
fill="#000000" stroke="none">
<path d="M1195 2824 c-139 -23 -256 -62 -400 -134 -736 -363 -1002 -1284 -574
-1987 140 -230 336 -408 584 -529 209 -102 385 -143 613 -144 330 0 607 95
870 298 104 80 163 139 245 244 235 303 334 675 282 1058 -82 612 -566 1102
-1180 1196 -112 17 -334 16 -440 -2z m515 -63 c263 -58 474 -174 671 -370 194
-194 310 -409 371 -686 31 -145 31 -397 -1 -545 -68 -310 -232 -581 -469 -771
-179 -144 -322 -217 -527 -267 -471 -117 -951 17 -1295 360 -193 194 -318 431
-370 708 -19 98 -22 137 -17 284 5 173 19 261 59 381 160 481 557 823 1068
920 116 22 378 14 510 -14z"/>
<path d="M1226 2709 c-269 -39 -543 -183 -734 -383 -232 -244 -355 -554 -355
-891 0 -604 400 -1108 998 -1256 114 -29 357 -36 490 -15 536 83 966 503 1067
1042 17 89 17 369 0 458 -103 546 -547 974 -1085 1046 -91 12 -296 11 -381 -1z
m893 -775 c79 -37 93 -35 105 12 8 29 42 30 40 1 0 -9 -1 -85 -2 -167 -2 -126
-5 -152 -17 -157 -21 -8 -23 -4 -35 58 -14 75 -64 173 -107 208 -101 83 -258
49 -283 -63 -22 -98 23 -159 214 -290 219 -149 278 -222 280 -345 3 -159 -100
-263 -288 -292 -95 -15 -183 -4 -277 33 -84 33 -106 32 -111 -4 -2 -15 -10
-23 -23 -23 -11 0 -20 6 -19 13 1 6 2 98 3 203 1 173 3 190 18 187 17 -3 21
-15 42 -127 30 -157 115 -241 243 -241 111 1 178 59 178 155 -1 101 -51 163
-243 293 -117 80 -179 138 -210 196 -31 58 -31 184 0 242 24 46 81 100 122
116 123 48 258 45 370 -8z m-1121 9 c-2 -12 -16 -20 -42 -24 -77 -13 -76 -6
-76 -398 0 -203 4 -372 11 -407 22 -122 88 -173 214 -161 78 7 110 23 158 76
64 71 70 107 75 455 5 392 -1 417 -100 433 -28 4 -38 10 -38 24 0 18 10 19
145 19 133 0 145 -2 145 -18 0 -11 -11 -21 -32 -27 -17 -6 -41 -23 -52 -38
-20 -27 -21 -45 -27 -370 -6 -351 -9 -379 -51 -461 -63 -123 -250 -185 -431
-142 -123 29 -187 82 -231 190 -19 47 -21 77 -26 419 l-5 369 -24 19 c-13 10
-36 19 -52 19 -22 0 -29 5 -29 20 0 19 7 20 236 20 218 0 235 -1 232 -17z"/>
</g>
</svg>
